<svg width="22" height="22" viewBox="0 0 22 22" fill="none" xmlns="http://www.w3.org/2000/svg">
<path d="M10.946 5.36581C7.84058 5.36581 5.33569 7.87647 5.33569 10.9891C5.33569 14.1017 7.84058 16.6124 10.946 16.6124C14.0515 16.6124 16.5564 14.1017 16.5564 10.9891C16.5564 7.87647 14.0515 5.36581 10.946 5.36581ZM10.946 14.645C8.93921 14.645 7.29858 13.0055 7.29858 10.9891C7.29858 8.97274 8.93433 7.33322 10.946 7.33322C12.9578 7.33322 14.5935 8.97274 14.5935 10.9891C14.5935 13.0055 12.9529 14.645 10.946 14.645ZM18.0945 5.13579C18.0945 5.865 17.5085 6.4474 16.7859 6.4474C16.0584 6.4474 15.4773 5.86011 15.4773 5.13579C15.4773 4.41146 16.0632 3.82417 16.7859 3.82417C17.5085 3.82417 18.0945 4.41146 18.0945 5.13579ZM21.8103 6.46697C21.7273 4.71 21.3269 3.15369 20.0427 1.87144C18.7634 0.589194 17.2107 0.18788 15.4578 0.0997867C13.6511 -0.0029888 8.23608 -0.0029888 6.42944 0.0997867C4.6814 0.182986 3.12866 0.5843 1.84448 1.86655C0.560303 3.14879 0.164795 4.70511 0.0769043 6.46208C-0.0256348 8.27289 -0.0256348 13.7004 0.0769043 15.5112C0.159912 17.2682 0.560303 18.8245 1.84448 20.1068C3.12866 21.389 4.67651 21.7903 6.42944 21.8784C8.23608 21.9812 13.6511 21.9812 15.4578 21.8784C17.2107 21.7952 18.7634 21.3939 20.0427 20.1068C21.322 18.8245 21.7224 17.2682 21.8103 15.5112C21.9128 13.7004 21.9128 8.27778 21.8103 6.46697ZM19.4763 17.4542C19.0955 18.4134 18.3582 19.1524 17.3962 19.539C15.9558 20.1116 12.5378 19.9795 10.946 19.9795C9.35425 19.9795 5.9314 20.1068 4.49585 19.539C3.53882 19.1573 2.80151 18.4183 2.41577 17.4542C1.84448 16.0104 1.97632 12.5846 1.97632 10.9891C1.97632 9.39363 1.84937 5.96288 2.41577 4.52403C2.79663 3.56479 3.53394 2.82578 4.49585 2.43915C5.93628 1.86655 9.35425 1.99869 10.946 1.99869C12.5378 1.99869 15.9607 1.87144 17.3962 2.43915C18.3533 2.82089 19.0906 3.5599 19.4763 4.52403C20.0476 5.96778 19.9158 9.39363 19.9158 10.9891C19.9158 12.5846 20.0476 16.0153 19.4763 17.4542Z" fill="#FAFAFA"/>
</svg>
